<?xml version="1.0" standalone="no"?>
<!DOCTYPE svg PUBLIC "-//W3C//DTD SVG 20010904//EN"
 "http://www.w3.org/TR/2001/REC-SVG-20010904/DTD/svg10.dtd">
<svg version="1.0" xmlns="http://www.w3.org/2000/svg"
 width="699.000000pt" height="699.000000pt" viewBox="0 0 699.000000 699.000000"
 preserveAspectRatio="xMidYMid meet">
<metadata>
Created by potrace 1.14, written by Peter Selinger 2001-2017
</metadata>
<g transform="translate(0.000000,699.000000) scale(0.100000,-0.100000)"
fill="#000000" stroke="none">
<path d="M3375 5834 c-16 -2 -70 -9 -120 -15 -339 -42 -702 -200 -990 -433
-160 -129 -194 -180 -174 -263 7 -31 5 -40 -8 -48 -56 -34 -100 -75 -114 -105
-89 -189 -99 -213 -99 -250 0 -33 -7 -47 -35 -76 -56 -55 -86 -125 -92 -213
l-6 -76 -82 -110 c-107 -143 -162 -228 -220 -345 -73 -145 -64 -205 44 -277
74 -48 146 -124 177 -184 23 -46 27 -49 64 -49 25 0 52 -9 75 -24 35 -24 120
-45 132 -32 4 3 -3 16 -14 29 -11 12 -28 36 -37 54 -16 32 -16 33 11 46 16 8
60 26 100 40 71 26 72 26 97 6 21 -17 23 -23 15 -52 -5 -17 -9 -68 -9 -112 -1
-79 -1 -81 -40 -123 l-39 -43 -17 55 c-10 31 -23 56 -30 56 -14 0 -44 -87 -44
-126 0 -14 -8 -25 -19 -29 -26 -8 -33 -31 -34 -123 -1 -115 9 -135 131 -255
74 -73 106 -111 100 -119 -4 -7 -8 -37 -8 -66 0 -51 3 -56 53 -109 153 -162
432 -340 690 -440 106 -40 281 -86 397 -103 85 -13 85 -13 112 -56 14 -23 46
-55 69 -71 38 -25 51 -28 129 -28 78 0 91 3 129 28 23 16 55 48 69 72 20 32
34 44 51 45 53 0 284 53 396 91 261 87 492 220 703 407 104 92 130 154 98 233
-5 10 1 19 19 27 19 9 38 37 65 95 22 45 57 106 80 136 42 55 48 81 29 128 -6
15 -10 59 -10 96 2 74 -13 137 -33 137 -7 0 -20 -25 -30 -55 -9 -30 -21 -57
-27 -60 -12 -8 -64 47 -86 89 -23 44 -43 124 -43 173 l0 42 57 11 c61 13 158
7 180 -12 15 -12 1 -41 -43 -89 -13 -14 -24 -29 -24 -33 0 -14 87 2 137 24 25
11 61 20 80 20 28 0 46 11 106 68 40 37 107 96 149 130 73 61 108 109 108 149
0 60 -81 216 -231 444 -85 130 -90 139 -96 205 -6 66 -10 73 -90 188 l-83 118
0 72 c-1 119 -52 199 -175 273 -33 20 -61 37 -62 38 -2 1 6 19 17 40 47 93 14
148 -181 305 -270 216 -586 356 -939 415 -90 15 -420 28 -485 19z m320 -84
c442 -41 857 -222 1153 -504 73 -69 79 -96 32 -141 -27 -26 -29 -32 -28 -100
3 -152 -91 -249 -241 -247 -58 0 -69 -3 -98 -29 -49 -42 -72 -38 -145 27 -266
238 -609 351 -949 315 -262 -28 -515 -141 -706 -315 -35 -33 -70 -56 -83 -56
-12 0 -38 13 -56 30 -30 26 -40 29 -98 28 -152 -2 -246 92 -246 247 0 66 -2
73 -30 100 -45 43 -40 72 23 132 320 302 709 470 1197 516 76 8 170 7 275 -3z
m-1532 -736 c-4 -26 -12 -33 -54 -50 -44 -16 -54 -26 -85 -82 -20 -35 -34 -64
-32 -66 1 -1 17 -6 33 -11 21 -7 36 -23 50 -52 l20 -42 52 50 c57 54 95 68 46
17 -46 -49 -57 -75 -36 -86 12 -7 29 -2 63 19 26 16 54 29 62 29 30 0 26 -14
-13 -42 -50 -36 -46 -54 9 -50 32 3 43 -1 56 -20 36 -51 4 -122 -59 -134 -39
-7 -41 -13 -20 -55 15 -28 15 -30 -10 -39 -45 -17 -85 -11 -167 26 -73 33 -87
36 -150 32 -82 -4 -98 -18 -98 -85 0 -24 -4 -43 -9 -43 -5 0 -19 -21 -32 -47
-12 -27 -31 -59 -43 -72 l-21 -24 53 5 c38 4 67 15 105 40 44 30 59 35 93 31
44 -5 86 11 117 45 17 18 21 18 59 5 24 -8 59 -12 82 -9 l41 5 -40 -14 c-22
-7 -51 -14 -64 -14 l-25 -1 25 -27 c14 -16 31 -36 38 -46 13 -16 12 -17 -15
-6 -16 6 -46 15 -66 19 -33 6 -38 5 -38 -12 0 -10 7 -32 15 -47 l14 -28 -69 5
c-43 3 -70 1 -70 -5 0 -30 154 -143 195 -143 24 0 17 -14 -17 -33 -40 -23 -24
-36 42 -37 l45 -1 -47 -25 c-27 -13 -48 -27 -48 -31 0 -7 140 2 163 12 13 6
17 2 17 -18 0 -14 -5 -38 -10 -52 l-10 -27 -33 21 c-18 11 -45 24 -60 30 l-27
11 17 -33 c11 -21 18 -58 19 -106 2 -88 13 -101 84 -101 51 0 47 5 77 -105 3
-11 -8 1 -25 26 -24 38 -36 47 -68 52 -137 23 -323 -19 -474 -107 -49 -28 -84
-33 -99 -13 -55 67 -106 145 -99 152 55 69 75 86 108 96 37 11 38 13 42 68 3
31 9 65 13 75 7 17 4 16 -26 -6 -20 -15 -60 -30 -96 -37 -76 -14 -127 -35
-170 -67 -31 -24 -32 -24 -43 -5 -5 11 -10 29 -10 41 0 52 135 276 281 467 75
99 77 103 76 155 -2 88 20 145 80 207 49 51 53 59 53 103 0 33 9 66 27 101 14
29 36 76 48 104 18 45 30 59 90 97 38 25 70 44 71 43 1 -1 0 -16 -3 -33z
m1588 -54 c385 -79 681 -325 827 -688 93 -232 101 -512 21 -757 -93 -282 -318
-533 -591 -660 -414 -191 -902 -110 -1231 204 -106 101 -168 185 -232 316 -81
164 -106 266 -112 455 -4 129 -2 171 15 250 97 465 441 801 904 885 114 21
284 18 399 -5z m1294 -236 c14 -29 50 -54 80 -54 8 0 23 -17 34 -39 11 -21 31
-51 44 -67 13 -16 32 -44 41 -61 9 -18 29 -47 45 -65 23 -27 29 -45 33 -101 5
-64 10 -75 65 -155 114 -166 253 -411 253 -447 0 -17 -16 -20 -26 -4 -4 6 -10
7 -15 2 -6 -6 -32 2 -66 19 -71 36 -98 35 -159 -4 l-49 -31 35 -9 c19 -6 46
-18 61 -29 25 -18 59 -83 59 -113 0 -16 -110 -126 -140 -140 -23 -10 -102 26
-180 84 -48 35 -66 42 -138 52 -99 13 -208 0 -273 -33 -43 -21 -60 -19 -40 5
23 28 105 48 216 53 128 7 116 19 -27 28 -51 4 -103 11 -115 17 -17 8 -26 8
-38 -2 -12 -10 -15 -10 -15 3 0 8 17 22 38 30 31 12 41 23 50 55 7 22 12 41
12 44 0 3 -18 13 -40 23 -26 12 -40 25 -40 37 0 23 -2 23 66 -7 66 -29 64 -29
64 -12 0 19 29 42 65 54 27 9 21 11 -65 27 -119 22 -130 25 -130 36 0 4 38 5
83 3 96 -6 203 9 258 38 22 11 39 21 39 23 0 2 -33 1 -72 -1 -73 -4 -73 -4
-43 13 42 23 105 74 105 84 0 4 -21 2 -47 -6 -25 -8 -65 -14 -87 -14 l-41 0
50 34 c28 18 59 44 70 56 l20 23 -20 -7 c-38 -14 -160 -46 -174 -46 -8 0 6 13
32 30 26 16 47 32 47 36 0 3 -25 3 -55 -1 -35 -4 -55 -3 -55 4 0 5 5 13 10 16
18 11 10 25 -22 39 -46 19 -95 58 -124 97 -32 44 -31 63 1 56 25 -4 26 -3 19
39 -10 68 3 129 35 163 l28 30 -36 16 -36 16 65 -5 65 -4 -33 29 -32 29 34 0
c19 0 46 -4 60 -10 31 -12 32 -7 5 31 -26 37 -13 37 37 -1 54 -41 68 -39 61 8
-3 20 -8 46 -12 57 -10 29 41 -31 60 -71z m-388 -253 c-20 -8 -47 33 -47 72
l0 41 28 -55 c15 -30 23 -56 19 -58z m-2703 -146 c31 -52 46 -57 46 -16 0 39
9 61 26 61 18 0 19 -60 1 -85 -20 -26 -63 -12 -87 28 -18 29 -26 57 -16 57 2
0 16 -20 30 -45z m303 -846 c9 -9 7 -21 -8 -50 -13 -26 -19 -59 -19 -100 0
-68 -25 -123 -61 -134 -30 -10 -35 1 -16 40 11 22 17 60 17 101 0 71 18 126
47 143 23 13 27 13 40 0z m2589 -25 c41 -20 54 -58 54 -160 0 -54 5 -81 23
-117 13 -25 19 -44 13 -40 -76 42 -121 112 -111 171 5 33 2 41 -30 70 -38 37
-45 65 -17 81 23 14 29 14 68 -5z m-2991 -54 c20 -39 19 -41 -12 -29 -46 17
-56 30 -36 45 26 19 31 17 48 -16z m616 -156 l-25 -11 29 -16 29 -15 -59 -18
c-73 -22 -71 -20 -55 -40 17 -20 7 -27 -72 -50 -45 -14 -55 -21 -47 -30 8 -10
4 -15 -15 -20 -14 -3 -32 -4 -40 -1 -10 4 -17 -3 -21 -24 -7 -31 -19 -35 -59
-19 -21 7 -26 6 -26 -5 0 -18 -9 -19 -44 -5 -25 9 -26 8 -26 -28 l-1 -37 -20
25 c-12 14 -27 34 -35 44 -21 31 -24 16 -10 -54 11 -54 11 -61 0 -45 -18 24
-34 81 -34 120 0 29 2 31 38 31 52 0 143 22 161 38 9 7 36 16 61 20 45 7 110
40 110 57 0 5 15 15 33 23 18 7 46 28 61 47 26 31 28 38 22 89 -3 30 -9 66
-12 80 -4 14 13 -13 37 -60 l44 -85 -24 -11z m2799 145 c0 -4 -21 -14 -46 -23
l-46 -15 14 22 c8 12 18 27 22 34 5 9 13 10 31 1 14 -6 25 -15 25 -19z m-628
-163 c2 -15 -5 -22 -30 -29 -53 -16 -58 1 -20 71 l33 61 7 -42 c3 -23 8 -51
10 -61z m-2632 -101 c18 -29 18 -33 4 -39 -27 -11 -52 -7 -58 10 -8 21 -8 98
1 120 5 14 9 9 20 -20 7 -21 22 -53 33 -71z m2697 49 c101 -69 264 -132 360
-138 53 -4 59 -7 68 -32 8 -20 7 -28 -3 -32 -25 -8 -71 -53 -99 -97 -33 -52
-47 -60 -68 -39 -20 20 -19 59 4 133 10 34 17 61 14 61 -3 0 -32 -7 -65 -16
-33 -8 -67 -13 -74 -10 -16 6 -19 42 -4 51 26 16 4 24 -55 18 -70 -6 -79 2
-54 49 10 19 9 20 -16 14 -71 -18 -85 -18 -91 -3 -6 16 22 67 37 67 4 0 25
-12 46 -26z m440 -47 c-6 -42 -19 -57 -53 -57 -20 0 -19 2 10 63 34 70 53 67
43 -6z m-2423 -156 c165 -153 379 -257 611 -298 134 -23 378 -14 505 20 197
52 369 144 508 272 45 41 91 75 102 75 11 0 37 -15 58 -34 35 -32 41 -34 107
-33 53 0 80 -5 111 -21 90 -46 143 -148 129 -244 -6 -37 -3 -46 15 -63 34 -31
52 -72 41 -93 -32 -57 -226 -217 -367 -302 -213 -129 -509 -231 -744 -256 -89
-9 -107 -18 -115 -52 -6 -30 -43 -71 -82 -91 -34 -18 -104 -13 -141 9 -34 21
-72 74 -72 102 0 18 -17 23 -115 33 -33 3 -111 18 -174 31 -330 73 -626 228
-858 448 -85 80 -92 104 -42 161 28 32 31 40 26 80 -20 144 114 278 259 258
40 -5 47 -3 84 31 22 20 49 36 60 36 11 0 54 -31 94 -69z"/>
<path d="M3251 5638 c-86 -42 -139 -114 -148 -202 -7 -65 9 -121 50 -182 85
-127 289 -142 405 -31 126 120 97 329 -57 409 -70 37 -181 39 -250 6z m182
-130 c24 -13 57 -68 57 -96 0 -38 -30 -92 -61 -107 -65 -34 -148 -5 -169 60
-36 110 69 196 173 143z"/>
<path d="M3835 5593 c-82 -237 -135 -399 -131 -408 3 -10 100 -45 124 -45 6 0
28 52 48 115 21 63 41 112 44 109 3 -3 28 -71 56 -152 l51 -146 54 -18 c30
-10 60 -17 68 -16 12 3 160 412 161 444 0 11 -99 54 -124 54 -6 0 -30 -55 -52
-122 l-40 -122 -55 157 -54 157 -59 20 c-33 11 -63 20 -67 20 -4 0 -15 -21
-24 -47z"/>
<path d="M2809 5512 l-57 -27 94 -215 c51 -118 95 -219 96 -223 3 -6 106 31
135 48 8 5 -188 440 -199 442 -7 1 -38 -10 -69 -25z"/>
<path d="M4482 5309 c-28 -14 -51 -36 -67 -64 -41 -69 -35 -95 46 -204 25 -35
19 -61 -14 -61 -29 0 -51 23 -72 73 -8 20 -17 37 -20 37 -15 0 -115 -56 -115
-65 0 -15 38 -76 69 -109 35 -38 117 -76 164 -76 48 0 86 19 125 64 56 64 52
117 -13 207 -40 53 -45 79 -15 79 23 0 70 -45 70 -66 0 -8 5 -14 10 -14 17 0
110 50 110 59 0 11 -53 82 -81 108 -31 28 -90 53 -126 53 -15 0 -47 -10 -71
-21z"/>
<path d="M2382 5242 l-53 -47 152 -185 c83 -102 155 -185 159 -185 4 0 55 40
114 88 l107 88 -20 27 c-11 15 -29 38 -40 51 l-19 24 -55 -47 -55 -47 -111
135 c-62 74 -115 137 -119 140 -4 2 -31 -17 -60 -42z"/>
<path d="M1653 4093 c-70 -110 -129 -220 -122 -228 4 -3 25 -1 47 5 38 10 41
13 51 61 6 27 27 91 45 142 19 50 33 93 32 95 -2 1 -26 -32 -53 -75z"/>
<path d="M1950 4088 c0 -34 23 -89 43 -103 24 -17 92 -20 102 -5 3 6 -1 10
-10 10 -8 0 -41 25 -72 55 -31 30 -58 55 -60 55 -2 0 -3 -6 -3 -12z"/>
<path d="M2160 3793 l0 -46 -38 41 c-22 23 -43 42 -49 42 -5 0 -1 -26 10 -57
18 -56 19 -114 2 -155 -6 -15 -2 -18 24 -18 18 0 47 6 65 14 39 16 52 54 41
114 -7 36 -41 112 -50 112 -3 0 -5 -21 -5 -47z"/>
<path d="M1975 3771 c-68 -25 -149 -66 -215 -111 -71 -48 -87 -67 -72 -82 9
-9 19 -7 39 10 62 50 153 106 236 145 48 22 87 45 87 49 0 12 -19 9 -75 -11z"/>
<path d="M1981 3720 c-67 -24 -173 -87 -226 -133 -31 -27 -37 -38 -28 -47 9
-10 25 -1 73 38 34 27 106 73 161 102 54 28 99 53 99 56 0 8 -26 3 -79 -16z"/>
<path d="M1990 3666 c-100 -37 -240 -131 -240 -161 0 -22 16 -18 52 13 49 42
115 86 186 121 81 41 82 56 2 27z"/>
<path d="M3410 4879 c-285 -36 -555 -203 -716 -445 -69 -103 -110 -194 -142
-314 -22 -82 -25 -116 -26 -250 0 -193 20 -286 98 -445 135 -274 343 -450 643
-542 81 -24 102 -27 268 -27 159 -1 190 2 265 22 317 87 582 327 696 631 49
131 67 250 61 401 -7 161 -33 266 -102 405 -194 396 -607 619 -1045 564z m-16
-258 c40 -20 80 -48 104 -77 l40 -45 49 49 c189 189 499 124 596 -126 11 -28
17 -71 17 -125 0 -68 -6 -94 -29 -149 -35 -82 -96 -169 -184 -263 -52 -56 -68
-68 -78 -58 -10 10 1 27 58 85 82 85 164 207 188 279 54 160 -18 326 -175 406
-47 23 -67 27 -136 27 -69 0 -90 -4 -138 -29 -54 -27 -146 -112 -146 -135 0
-22 -29 -8 -54 25 -42 55 -77 83 -136 112 -46 23 -68 27 -135 27 -67 0 -89 -5
-138 -29 -65 -32 -124 -91 -158 -157 -30 -58 -37 -166 -15 -240 35 -120 182
-298 380 -460 118 -97 218 -168 236 -168 14 0 81 45 188 127 45 35 87 63 92
63 18 0 10 -21 -17 -45 -51 -45 -250 -185 -263 -185 -7 0 -42 21 -79 47 -294
208 -491 416 -560 591 -31 79 -29 199 5 272 34 74 66 113 121 151 111 77 246
87 367 30z m-174 -416 l0 -115 35 0 c28 0 35 -4 35 -20 0 -18 -7 -20 -55 -20
l-55 0 0 135 c0 128 1 135 20 135 19 0 20 -7 20 -115z m278 99 c14 -10 22 -25
22 -45 0 -35 -27 -41 -32 -6 -2 14 -11 23 -25 25 -22 3 -23 1 -23 -93 0 -94 1
-96 23 -93 16 2 23 11 25 31 5 41 32 35 32 -7 0 -58 -60 -86 -100 -46 -17 17
-20 33 -20 115 0 82 3 98 20 115 24 24 48 25 78 4z m235 3 c25 -18 32 -79 14
-116 -14 -28 -14 -37 -2 -79 19 -60 19 -62 -4 -62 -15 0 -22 12 -32 55 -7 33
-17 55 -26 55 -9 0 -13 -16 -13 -55 0 -48 -2 -55 -20 -55 -19 0 -20 7 -20 135
l0 135 43 0 c24 0 51 -6 60 -13z m187 -122 c0 -128 -1 -135 -20 -135 -19 0
-20 7 -20 135 0 128 1 135 20 135 19 0 20 -7 20 -135z m-1139 -135 c26 -14 42
-49 73 -160 36 -126 86 -205 86 -136 0 27 24 56 45 56 7 0 40 -18 72 -39 32
-22 92 -58 133 -82 122 -70 204 -159 230 -251 6 -18 24 -112 40 -208 17 -96
39 -193 50 -215 11 -23 20 -45 20 -48 0 -4 -64 -6 -142 -5 l-143 3 3 67 c5
103 -13 135 -154 260 -115 102 -231 218 -286 285 -48 60 -87 194 -104 361 -9
101 19 142 77 112z m1583 -12 c21 -29 20 -72 -3 -210 -31 -176 -49 -213 -160
-330 -53 -56 -149 -148 -214 -205 -64 -58 -125 -119 -134 -136 -12 -22 -18
-56 -18 -112 l0 -80 -142 -3 c-79 -1 -143 -1 -143 1 0 3 9 25 20 51 12 25 34
124 51 218 16 95 34 188 39 206 23 87 109 182 218 243 31 18 92 55 134 81 100
64 115 61 131 -27 6 -37 63 69 86 161 12 48 28 99 36 115 27 51 74 64 99 27z"/>
<path d="M3670 4240 c0 -37 2 -41 23 -38 18 2 22 9 22 38 0 29 -4 36 -22 38
-21 3 -23 -1 -23 -38z"/>
<path d="M2735 4001 c-10 -46 17 -211 52 -321 15 -48 34 -72 143 -184 69 -70
164 -162 212 -202 108 -92 141 -151 137 -241 l-3 -58 102 -3 c56 -1 102 -1
102 1 0 3 -6 22 -14 43 -7 22 -19 80 -26 129 -18 136 -50 275 -72 318 -32 63
-97 120 -224 195 -65 40 -128 78 -138 87 -24 18 -41 6 -31 -24 3 -12 51 -60
106 -107 54 -47 99 -92 99 -100 0 -40 -79 5 -215 122 -90 78 -114 117 -145
239 -29 113 -71 167 -85 106z"/>
<path d="M4306 4011 c-10 -11 -31 -65 -47 -121 -16 -56 -36 -114 -43 -128 -37
-69 -287 -265 -309 -243 -17 17 0 37 87 111 94 78 122 111 112 136 -6 15 -8
15 -29 0 -12 -9 -76 -48 -142 -88 -202 -121 -239 -175 -276 -407 -17 -109 -37
-210 -50 -261 -3 -12 13 -15 98 -18 l101 -3 -5 60 c-8 91 24 149 132 241 134
112 325 310 347 357 35 79 77 318 63 362 -8 26 -17 26 -39 2z"/>
<path d="M5050 4399 c-111 -39 -195 -44 -239 -11 -36 26 -38 21 -12 -22 34
-54 73 -70 156 -63 47 3 77 1 84 -6 8 -8 11 0 11 31 0 32 4 42 16 42 14 0 16
-7 11 -40 -3 -22 -1 -43 4 -46 11 -6 56 41 64 67 7 21 25 26 25 7 0 -28 -40
-78 -67 -83 -40 -9 -78 -31 -81 -49 -5 -24 54 -20 115 8 56 26 63 24 92 -31 6
-12 24 -24 40 -28 17 -3 41 -15 53 -25 27 -21 64 -30 61 -15 -1 6 -17 36 -37
68 -31 52 -56 129 -56 172 0 8 -9 24 -20 35 -31 31 -115 27 -220 -11z"/>
<path d="M5416 4081 c-4 -6 -20 -11 -36 -11 -20 0 -28 -4 -24 -12 7 -19 47
-46 78 -54 21 -5 26 -3 26 12 0 27 -36 79 -44 65z"/>
<path d="M5447 3940 c43 -41 73 -51 73 -26 0 26 -12 45 -25 40 -7 -3 -30 2
-51 10 l-39 16 42 -40z"/>
<path d="M5470 3882 c0 -13 62 -52 72 -46 14 9 8 24 -10 24 -10 0 -28 7 -40
16 -12 8 -22 11 -22 6z"/>
<path d="M5020 3822 c0 -4 16 -14 35 -21 39 -14 178 -115 210 -152 l20 -24
-20 16 c-70 58 -221 119 -292 119 -52 0 -49 -15 4 -25 46 -8 206 -82 259 -120
22 -15 30 -24 19 -21 -116 40 -263 78 -319 83 -79 7 -87 -10 -9 -21 27 -3 130
-34 230 -68 158 -53 186 -60 208 -50 14 6 25 20 25 30 0 35 -172 182 -270 232
-58 29 -100 38 -100 22z"/>
<path d="M2471 2726 c-61 -68 -111 -129 -111 -135 0 -6 8 -15 18 -20 15 -8 36
11 135 121 93 103 115 134 106 144 -6 8 -17 14 -24 14 -7 0 -63 -56 -124 -124z"/>
<path d="M4432 2808 c-7 -7 -12 -16 -12 -21 0 -4 46 -63 103 -129 56 -67 105
-126 108 -131 4 -6 30 9 58 33 49 41 50 44 34 62 -16 18 -17 18 -45 -9 -19
-18 -31 -24 -36 -17 -16 26 -187 224 -192 224 -3 0 -11 -5 -18 -12z"/>
<path d="M2555 2649 c-92 -133 -97 -143 -80 -155 10 -8 21 -14 24 -14 3 0 32
40 65 88 32 48 56 80 53 71 -3 -8 -18 -57 -33 -108 -27 -90 -27 -94 -10 -107
22 -15 13 -26 134 148 45 64 82 122 82 127 0 6 -9 15 -19 21 -18 9 -26 1 -73
-70 -29 -44 -54 -77 -56 -72 -1 4 11 48 28 96 30 89 29 116 -4 116 -7 0 -57
-64 -111 -141z"/>
<path d="M4320 2725 c-11 -13 -4 -38 44 -168 69 -187 70 -187 92 -165 13 13
15 22 6 46 -9 28 -8 32 15 47 24 16 26 16 48 -5 16 -15 30 -20 44 -15 12 3 21
9 21 13 0 4 -58 65 -128 135 -113 113 -130 126 -142 112z m133 -202 c-20 -16
-17 -19 -48 52 l-25 60 45 -50 c41 -45 44 -51 28 -62z"/>
<path d="M2793 2673 c-4 -11 1 -22 15 -31 22 -14 22 -15 -49 -149 -57 -107
-69 -137 -58 -144 8 -5 19 -9 26 -9 6 0 42 57 78 128 37 70 69 128 70 130 2 2
13 -2 25 -8 18 -10 24 -9 31 1 16 26 9 34 -54 67 -73 37 -75 38 -84 15z"/>
<path d="M4206 2657 c-17 -13 -16 -19 28 -108 l46 -94 -78 82 c-68 72 -79 81
-98 71 -21 -10 -20 -14 51 -166 41 -86 77 -158 82 -159 5 -2 16 2 26 9 15 12
13 21 -33 113 -55 111 -58 112 62 -23 37 -42 52 -52 68 -47 11 3 20 10 20 15
0 13 -144 320 -150 320 -3 0 -14 -6 -24 -13z"/>
<path d="M2941 2568 c-57 -136 -113 -279 -110 -281 16 -13 113 -46 120 -41 14
8 11 44 -4 44 -7 0 -21 6 -32 13 -17 13 -17 15 0 61 18 48 22 50 67 31 11 -4
20 0 28 15 10 19 8 22 -19 33 -17 6 -31 17 -31 25 0 10 25 68 35 80 1 1 16 -3
34 -9 27 -9 35 -9 42 2 5 8 9 17 9 20 0 7 -97 49 -112 49 -5 0 -17 -19 -27
-42z"/>
<path d="M3955 2558 c-11 -6 -26 -18 -32 -26 -43 -53 29 -284 97 -312 35 -15
77 -3 97 26 34 53 -9 228 -73 292 -34 34 -56 39 -89 20z m85 -115 c12 -32 26
-79 32 -106 10 -41 9 -50 -6 -65 -16 -16 -18 -16 -37 6 -19 24 -69 168 -69
201 0 9 5 22 12 29 20 20 45 -5 68 -65z"/>
<path d="M3095 2548 c-22 -67 -84 -322 -79 -329 3 -5 14 -9 24 -9 14 0 23 13
35 52 8 28 15 59 16 67 2 34 17 -37 18 -85 1 -52 10 -64 47 -64 10 0 13 7 10
23 -3 12 -8 52 -11 90 -6 57 -4 67 9 67 25 0 56 60 56 106 0 44 -17 67 -60 79
-14 3 -33 9 -43 11 -9 3 -19 -1 -22 -8z m71 -63 c10 -25 -16 -85 -36 -85 -16
0 -17 4 -9 38 15 57 18 62 29 62 6 0 13 -7 16 -15z"/>
<path d="M3800 2502 c0 -10 13 -88 30 -173 16 -85 30 -155 30 -156 0 -8 40 -2
45 7 3 5 -9 83 -26 175 -30 158 -33 165 -55 165 -17 0 -24 -6 -24 -18z"/>
<path d="M3252 2348 c-12 -90 -22 -169 -22 -175 0 -7 11 -13 24 -13 22 0 24 6
35 75 6 42 11 93 12 113 1 32 2 34 8 12 4 -14 14 -66 21 -117 11 -78 16 -92
33 -97 12 -3 23 -3 26 0 8 8 51 328 46 342 -2 6 -13 12 -24 12 -23 0 -30 -24
-40 -148 l-7 -87 -19 123 c-18 120 -19 122 -45 122 l-26 0 -22 -162z"/>
<path d="M3700 2503 c-87 -13 -90 -14 -90 -33 0 -15 7 -20 29 -20 33 0 32 4
52 -184 12 -110 14 -116 35 -116 13 0 25 3 27 8 3 4 -4 70 -14 147 -10 77 -18
143 -19 148 0 4 11 7 25 7 20 0 25 5 25 25 0 26 -8 28 -70 18z"/>
<path d="M3515 2468 c-6 -27 -65 -320 -65 -325 0 -1 11 -3 25 -3 20 0 25 6 31
35 6 32 9 35 40 35 27 0 34 -4 34 -19 0 -35 12 -51 36 -51 13 0 24 6 23 13 0
6 -17 84 -38 172 -33 141 -41 160 -59 163 -15 2 -23 -3 -27 -20z m41 -158 c10
-60 10 -60 -14 -60 -22 0 -24 3 -18 31 3 17 6 44 6 60 0 50 16 31 26 -31z"/>
<path d="M3469 2061 c-63 -64 -19 -161 74 -161 38 0 49 5 71 31 56 67 13 159
-74 159 -33 0 -48 -6 -71 -29z m115 -12 c19 -15 26 -30 26 -54 0 -19 -4 -36
-9 -40 -16 -9 -29 27 -24 62 5 29 2 33 -28 42 -23 6 -27 9 -13 10 12 1 33 -8
48 -20z m-82 -49 c-3 -48 -1 -60 11 -60 9 0 17 9 19 20 3 18 4 18 25 -5 l21
-25 -25 -6 c-58 -15 -108 72 -67 117 9 10 18 19 18 19 1 0 -1 -27 -2 -60z m48
20 c0 -5 -4 -10 -10 -10 -5 0 -10 5 -10 10 0 6 5 10 10 10 6 0 10 -4 10 -10z"/>
<path d="M2331 1611 c-22 -22 -65 -73 -96 -115 -33 -44 -65 -76 -75 -76 -22 0
-70 -37 -70 -54 0 -10 8 -11 39 -3 31 8 57 7 117 -6 72 -16 79 -16 96 0 10 9
18 19 18 23 0 4 -26 12 -57 19 -95 20 -94 20 -83 41 18 35 132 172 137 166 3
-3 -6 -25 -21 -50 -24 -41 -34 -76 -20 -76 16 0 44 23 44 36 0 8 9 32 20 54
42 83 15 105 -49 41z"/>
<path d="M3306 1629 c-93 -50 -196 -188 -196 -266 0 -33 5 -46 26 -62 15 -12
35 -21 46 -21 36 0 93 31 139 76 l45 45 12 -26 c15 -32 33 -32 71 0 30 26 30
26 41 5 15 -28 35 -25 63 12 l25 32 -1 -34 c-2 -42 13 -47 50 -16 l30 25 11
-24 c14 -30 42 -32 67 -5 10 11 28 20 41 20 13 0 26 5 29 10 3 6 -1 10 -9 10
-19 0 -20 5 -5 31 6 12 8 28 5 36 -6 14 -10 13 -31 -7 -14 -13 -25 -33 -25
-46 0 -22 -24 -39 -41 -28 -17 10 -9 30 22 60 52 50 119 145 119 170 0 29 -3
29 -36 7 -40 -26 -110 -118 -130 -170 -17 -44 -38 -72 -56 -73 -16 0 -7 32 17
68 25 36 32 62 18 62 -5 0 -35 -27 -67 -60 -33 -33 -63 -60 -68 -60 -17 0 -7
28 22 55 17 16 30 35 30 42 0 23 -28 14 -52 -18 -35 -48 -79 -89 -93 -89 -24
0 -27 33 -5 60 41 51 80 126 80 154 0 27 -1 28 -22 14 -30 -20 -86 -112 -101
-167 -10 -35 -23 -52 -65 -84 -66 -50 -118 -56 -141 -16 -24 43 7 109 94 197
66 68 105 89 105 59 0 -25 -59 -97 -74 -91 -15 6 -56 -45 -56 -70 0 -25 26
-19 66 17 79 69 114 143 82 175 -17 17 -37 14 -82 -9z m486 -61 c-17 -24 -45
-59 -62 -78 l-31 -35 23 44 c25 48 88 125 95 117 3 -2 -9 -24 -25 -48z m-337
-43 c-15 -26 -29 -45 -31 -42 -7 7 15 60 33 80 28 30 27 10 -2 -38z"/>
<path d="M4543 1593 c-34 -35 -67 -82 -84 -120 -30 -65 -64 -97 -75 -69 -3 8
1 25 9 38 8 13 15 38 15 56 1 32 -1 33 -26 28 -38 -9 -104 -57 -121 -87 -12
-22 -12 -31 -2 -58 17 -39 32 -39 65 0 l26 31 0 -31 c0 -39 26 -42 60 -6 l24
26 13 -26 c16 -30 43 -32 68 -5 10 11 28 20 41 20 13 0 26 5 29 10 3 6 -1 10
-9 10 -19 0 -20 5 -5 31 6 12 8 28 5 36 -6 14 -10 13 -31 -7 -14 -13 -25 -33
-25 -46 0 -22 -24 -39 -41 -28 -17 10 -9 30 22 60 82 77 147 194 108 194 -6 0
-36 -26 -66 -57z m29 -25 c-17 -24 -45 -59 -62 -78 l-31 -35 23 44 c25 48 88
125 95 117 3 -2 -9 -24 -25 -48z m-212 -118 c-24 -34 -67 -66 -76 -57 -13 13
9 45 44 65 50 29 57 27 32 -8z"/>
<path d="M4090 1630 c-54 -12 -94 -39 -98 -69 -3 -19 1 -21 40 -20 32 0 38 2
23 8 -16 7 -12 10 25 18 25 5 46 9 48 7 10 -7 -73 -104 -88 -104 -23 0 -42
-23 -34 -43 3 -9 -4 -29 -15 -46 -12 -16 -21 -34 -21 -40 0 -23 21 -10 45 29
l25 39 56 -25 c31 -14 74 -34 95 -44 49 -25 49 -25 49 8 0 32 -10 38 -115 78
l-60 22 40 6 c109 17 149 30 172 52 32 32 32 88 0 109 -30 19 -128 27 -187 15z
m171 -61 c20 -10 20 -12 4 -29 -16 -18 -72 -40 -137 -54 -30 -7 -37 4 -14 23
8 6 19 25 26 41 11 27 17 30 57 30 24 0 53 -5 64 -11z"/>
<path d="M2470 1565 c-10 -12 -10 -19 -2 -27 15 -15 48 14 38 31 -10 15 -21
14 -36 -4z"/>
<path d="M4898 1560 c-7 -11 -22 -20 -34 -20 -19 0 -54 -28 -54 -43 0 -4 9 -7
21 -7 19 0 19 -1 -5 -32 -13 -18 -38 -41 -55 -51 -27 -16 -32 -16 -37 -3 -3 8
1 25 9 38 8 13 15 38 15 56 1 32 -1 33 -26 28 -38 -9 -104 -57 -121 -87 -12
-22 -12 -31 -2 -58 17 -39 32 -39 65 0 l26 31 0 -31 c0 -38 27 -42 56 -10 35
39 49 41 49 6 0 -45 26 -46 72 -1 30 29 32 33 11 20 -36 -21 -48 -20 -48 4 0
32 32 90 51 90 22 0 43 26 36 45 -4 8 -2 17 3 20 15 9 12 25 -5 25 -8 0 -20
-9 -27 -20z m-188 -110 c-24 -34 -67 -66 -76 -57 -13 13 9 45 44 65 50 29 57
27 32 -8z"/>
<path d="M2847 1465 c-38 -41 -73 -75 -78 -75 -16 0 -10 23 18 62 54 78 -14
67 -82 -13 -35 -43 -44 -29 -10 15 26 34 26 36 7 36 -12 0 -29 -13 -41 -34
-12 -19 -28 -40 -37 -47 -14 -11 -15 -9 -9 23 18 95 -25 102 -106 18 -31 -33
-64 -60 -73 -60 -29 0 -28 22 3 60 34 42 39 60 17 60 -19 0 -76 -67 -76 -90 0
-34 19 -70 37 -70 9 0 29 11 43 25 l27 26 17 -26 c20 -30 35 -31 67 -7 37 29
67 33 74 11 9 -28 16 -24 59 27 42 50 56 53 30 7 -17 -29 -14 -63 5 -63 5 0
22 11 38 24 l28 24 22 -24 c31 -33 57 -30 101 12 l37 35 -33 -16 c-35 -17 -62
-14 -82 10 -10 12 -8 19 11 35 13 10 27 19 32 20 12 0 8 -45 -5 -59 -11 -11
-10 -13 1 -9 8 2 23 16 34 30 15 20 18 34 12 67 -4 22 -10 41 -13 41 -4 -1
-38 -34 -75 -75z m-269 -27 c-6 -18 -12 -39 -14 -45 -2 -7 -13 -13 -24 -13
-28 0 -26 35 5 65 34 35 45 32 33 -7z"/>
<path d="M2840 1079 c-32 -13 -87 -66 -106 -101 -12 -23 -12 -29 2 -42 20 -21
27 -20 49 4 17 18 17 20 2 14 -40 -15 -3 44 47 75 74 46 74 13 0 -127 -34 -65
-51 -109 -46 -114 11 -11 9 -15 66 94 57 108 72 158 57 187 -13 23 -32 25 -71
10z"/>
<path d="M3150 1005 c-10 -12 -10 -19 -2 -27 15 -15 48 14 38 31 -10 15 -21
14 -36 -4z"/>
<path d="M3278 1000 c-7 -11 -22 -20 -34 -20 -19 0 -54 -28 -54 -43 0 -4 9 -7
21 -7 19 0 19 -1 -5 -33 -34 -45 -91 -76 -108 -59 -9 9 -5 20 20 51 35 43 40
61 18 61 -13 0 -51 -40 -89 -94 -19 -27 -37 -34 -37 -14 0 7 12 29 27 50 54
78 -14 67 -82 -13 -35 -43 -44 -29 -10 15 26 34 26 36 7 36 -12 0 -29 -13 -41
-34 -23 -36 -26 -62 -11 -86 8 -12 18 -6 55 35 47 51 50 51 26 3 -14 -27 -10
-58 8 -58 5 0 23 12 40 26 l31 26 10 -26 c12 -32 40 -34 66 -5 35 39 49 41 49
6 0 -43 25 -46 69 -7 l36 32 10 -26 c12 -31 40 -34 65 -6 10 11 22 20 26 20 4
0 11 -9 14 -20 9 -28 29 -25 59 11 l26 31 0 -31 c0 -38 27 -42 56 -10 35 39
49 41 49 6 0 -43 25 -46 69 -7 20 18 36 27 36 22 0 -17 30 -42 50 -42 11 0 35
13 53 30 l34 29 11 -24 c15 -34 36 -31 65 7 l25 32 -1 -34 c-3 -52 19 -47 84
19 71 72 101 84 63 26 -17 -26 -16 -76 2 -82 7 -2 25 7 40 21 l29 24 22 -24
c31 -33 57 -30 101 12 l37 35 -33 -16 c-35 -17 -62 -14 -82 10 -10 12 -8 19
11 35 13 10 27 19 32 20 12 0 8 -45 -5 -58 -8 -8 -9 -12 -1 -12 6 0 21 12 33
27 17 22 21 36 15 68 -3 21 -8 41 -10 43 -2 3 -36 -30 -76 -72 -68 -72 -99
-92 -99 -62 0 7 11 30 25 50 29 43 24 60 -16 52 -17 -3 -29 -1 -32 7 -8 23
-49 -25 -44 -52 3 -17 -3 -31 -21 -47 -48 -45 -58 -17 -17 44 25 36 32 62 18
62 -5 0 -35 -27 -67 -60 -33 -33 -63 -60 -68 -60 -17 0 -7 28 22 55 17 16 30
35 30 42 0 24 -28 14 -54 -19 -58 -73 -99 -100 -125 -83 -20 12 -11 24 29 45
40 21 66 53 55 70 -17 28 -97 -14 -121 -63 -28 -57 -84 -88 -84 -47 0 32 32
90 51 90 22 0 43 26 36 45 -4 8 -2 17 3 20 15 9 12 25 -5 25 -8 0 -20 -9 -27
-20 -7 -11 -22 -20 -34 -20 -19 0 -54 -28 -54 -43 0 -4 9 -7 21 -7 19 0 19 -1
-5 -32 -13 -18 -38 -41 -55 -51 -27 -16 -32 -16 -37 -3 -3 8 1 25 9 38 8 13
15 38 15 56 1 32 -1 33 -26 27 -43 -10 -102 -53 -123 -90 -22 -37 -55 -53 -72
-36 -8 8 -2 22 21 50 35 43 40 61 18 61 -17 0 -76 -65 -76 -84 0 -14 -41 -46
-60 -46 -15 0 -12 35 7 75 9 20 24 35 34 35 22 0 43 26 36 45 -4 8 -2 17 3 20
15 9 12 25 -5 25 -8 0 -20 -9 -27 -20z m510 -97 c-15 -15 -31 -23 -35 -19 -9
8 32 46 50 46 7 0 -1 -12 -15 -27z m-288 -13 c-24 -34 -67 -66 -76 -57 -13 13
9 45 44 65 50 29 57 27 32 -8z"/>
<path d="M3380 1005 c-10 -12 -10 -19 -2 -27 15 -15 48 14 38 31 -10 15 -21
14 -36 -4z"/>
</g>
</svg>
